<svg width="70" height="83" viewBox="0 0 70 83" fill="none" xmlns="http://www.w3.org/2000/svg">
<path fill-rule="evenodd" clip-rule="evenodd" d="M2 4.73244C3.10457 4.73244 4 3.83701 4 2.73244C4 1.62787 3.10457 0.732436 2 0.732436C0.89543 0.732436 0 1.62787 0 2.73244C0 3.83701 0.89543 4.73244 2 4.73244ZM4 14.5002C4 13.3956 3.10457 12.5002 2 12.5002C0.89543 12.5002 0 13.3956 0 14.5002V81.0002V83.0002H2H37H39V81.0002V57.5017L66.6594 82.4844C67.4791 83.2248 68.7438 83.1605 69.4842 82.3408C70.2246 81.521 70.1603 80.2563 69.3406 79.516L39.8428 52.8728L69.4679 20.8586C70.2181 20.0478 70.1691 18.7825 69.3584 18.0323C68.5477 17.282 67.2823 17.3311 66.5321 18.1418L39 47.8942V16.5002H59.5C60.6046 16.5002 61.5 15.6047 61.5 14.5002C61.5 13.3956 60.6046 12.5002 59.5 12.5002H37H18C16.8954 12.5002 16 13.3956 16 14.5002C16 15.6047 16.8954 16.5002 18 16.5002H35V53.0002V79.0002H4V14.5002Z" fill="url(#paint0_linear_1_7)"/>
<defs>
<linearGradient id="paint0_linear_1_7" x1="3.61216e-07" y1="3.24059" x2="71.3612" y2="81.7631" gradientUnits="userSpaceOnUse">
<stop stop-color="#DCD534"/>
<stop offset="1" stop-color="#237BCC"/>
</linearGradient>
</defs>
</svg>
